<?xml version="1.0" encoding="UTF-8" standalone="no"?>
<svg
   xmlns:dc="http://purl.org/dc/elements/1.1/"
   xmlns:cc="http://creativecommons.org/ns#"
   xmlns:rdf="http://www.w3.org/1999/02/22-rdf-syntax-ns#"
   xmlns:svg="http://www.w3.org/2000/svg"
   xmlns="http://www.w3.org/2000/svg"
   xmlns:xlink="http://www.w3.org/1999/xlink"
   id="svg8"
   version="1.1"
   viewBox="0 0 70 40"
   height="40mm"
   width="70mm">
  <defs
     id="defs2">
    <clipPath
       id="clipPath4834"
       clipPathUnits="userSpaceOnUse">
      <path
         id="path4832"
         d="M 0,256.3 H 913.441 V 0 H 0 Z" />
    </clipPath>
    <style
       id="style5060"
       type="text/css" />
    <clipPath
       id="clipPath4834-3"
       clipPathUnits="userSpaceOnUse">
      <path
         id="path4832-8"
         d="M 0,256.3 H 913.441 V 0 H 0 Z" />
    </clipPath>
    <clipPath
       clipPathUnits="userSpaceOnUse"
       id="clipPath3962">
      <rect
         style="opacity:0.54900004;fill:none;fill-opacity:1;stroke:#abedff;stroke-width:1.49030864;stroke-miterlimit:4;stroke-dasharray:none;stroke-dashoffset:0;stroke-opacity:1"
         id="rect3964"
         width="86.914993"
         height="71.143837"
         x="587.78613"
         y="-414.32101"
         transform="scale(1,-1)" />
    </clipPath>
    <clipPath
       id="SVGID_6_">
      <use
         height="100%"
         width="100%"
         y="0"
         x="0"
         style="overflow:visible"
         xlink:href="#SVGID_5_"
         overflow="visible"
         id="use1084" />
    </clipPath>
    <clipPath
       id="SVGID_4_">
      <use
         height="100%"
         width="100%"
         y="0"
         x="0"
         style="overflow:visible"
         xlink:href="#SVGID_3_"
         overflow="visible"
         id="use1074" />
    </clipPath>
    <clipPath
       id="SVGID_2_">
      <use
         height="100%"
         width="100%"
         y="0"
         x="0"
         style="overflow:visible"
         xlink:href="#SVGID_1_"
         overflow="visible"
         id="use1064" />
    </clipPath>
    <clipPath
       id="SVGID_8_">
      <use
         height="100%"
         width="100%"
         y="0"
         x="0"
         style="overflow:visible"
         xlink:href="#SVGID_7_"
         overflow="visible"
         id="use1094" />
    </clipPath>
    <clipPath
       id="SVGID_10_">
      <use
         height="100%"
         width="100%"
         y="0"
         x="0"
         style="overflow:visible"
         xlink:href="#SVGID_9_"
         overflow="visible"
         id="use1104" />
    </clipPath>
    <path
       d="m 975,0 h 254.4 V 572.4 H 975 Z"
       id="path1912" />
    <path
       d="M 720.6,0 H 975 V 572.4 H 720.6 Z"
       id="path1919" />
    <path
       d="m 720.6,306.4 h 508.7 v 266 H 720.6 Z"
       id="path1926" />
    <path
       d="M 720.6,470.3 H 975 V 828.7 H 720.6 Z"
       id="path1933" />
    <path
       d="m 975,470.3 h 254.5 V 828.7 H 975 Z"
       id="path1940" />
    <linearGradient
       gradientUnits="userSpaceOnUse"
       y2="147"
       x2="304.87"
       y1="147"
       x1="10.87"
       id="linear-gradient">
      <stop
         id="stop2472"
         stop-color="#3cf"
         offset="0" />
      <stop
         id="stop2474"
         stop-color="#4edcca"
         offset="1" />
    </linearGradient>
  </defs>
  <metadata
     id="metadata5">
    <rdf:RDF>
      <cc:Work
         rdf:about="">
        <dc:format>image/svg+xml</dc:format>
        <dc:type
           rdf:resource="http://purl.org/dc/dcmitype/StillImage" />
        <dc:title></dc:title>
      </cc:Work>
    </rdf:RDF>
  </metadata>
  <g
     transform="translate(0,-257)"
     id="layer1">
    <path
       d="m -34.962799,107.82291 a 19.087799,11.717261 0 0 1 -0.0035,0.22285 l -19.084346,-0.22285 z"
       id="path1323"
       style="opacity:1;fill:#f4d7d7;fill-opacity:1;stroke:none;stroke-width:0.66499996;stroke-linecap:round;stroke-miterlimit:4;stroke-dasharray:none;stroke-dashoffset:8.1940155;stroke-opacity:1" />
    <g
       transform="matrix(0.92209697,0,0,0.92209697,-26.377496,157.37928)"
       id="g2102">
      <path
         style="opacity:1;fill:#fac900;fill-opacity:1;stroke:none;stroke-width:0.81035018;stroke-linecap:round;stroke-miterlimit:4;stroke-dasharray:none;stroke-dashoffset:8.1940155;stroke-opacity:1"
         d="m 248.91797,412.88477 c -22.93126,0.24681 -45.44274,6.39485 -65.34766,17.88671 -41.32679,23.86031 -66.78511,67.95558 -66.78515,115.67579 h 0.004 c 0.0561,-33.30131 18.3451,-64.05286 47.99805,-80.70508 29.70428,-16.67917 66.30158,-16.67917 96.00586,0 5.77194,3.2417 11.10674,7.02505 15.9668,11.25 l -0.32032,-0.38867 58.17578,-33.78711 c -5.44874,-4.42929 -11.2787,-8.46881 -17.47265,-12.04493 -19.38074,-11.18921 -41.26217,-17.32968 -63.63477,-17.85742 -1.53184,-0.0362 -3.06109,-0.0457 -4.58984,-0.0293 z"
         id="path2065"
         transform="scale(0.26458333)" />
      <path
         style="opacity:1;fill:#fac900;fill-opacity:1;stroke:none;stroke-width:0.81035018;stroke-linecap:round;stroke-miterlimit:4;stroke-dasharray:none;stroke-dashoffset:8.1940155;stroke-opacity:1"
         d="m 337.55273,445.28125 5.44922,4.9668 c -1.76712,-1.70195 -3.58306,-3.35851 -5.44922,-4.9668 z"
         id="path2063"
         transform="scale(0.26458333)" />
      <path
         style="opacity:1;fill:#fac900;fill-opacity:1;stroke:none;stroke-width:0.81035018;stroke-linecap:round;stroke-miterlimit:4;stroke-dasharray:none;stroke-dashoffset:8.1940155;stroke-opacity:1"
         d="m 344.67969,451.87695 -48.9668,47.68946 c 0.0574,0.0958 0.1187,0.18916 0.17578,0.28515 8.28519,13.93206 12.87078,29.94545 12.89844,46.59571 l 37.31836,22.03125 37.82226,-22.03125 c 0,-23.86009 -6.3641,-46.8138 -17.89453,-66.78516 -5.76522,-9.9857 -12.82123,-19.22603 -21.01953,-27.46094 -0.10936,-0.10985 -0.22422,-0.21473 -0.33398,-0.32422 z"
         id="path826"
         transform="scale(0.26458333)" />
      <g
         id="g1355"
         transform="matrix(1.0130086,-0.02007439,0.02007439,1.0130086,146.0588,57.778656)"
         style="fill:#fac900;fill-opacity:1">
        <path
           id="path1307"
           d="m -58.20435,59.835856 -34.725134,20.25918 -0.01081,-0.0161 a 4.9558493,4.9558493 0 0 0 -2.189868,4.44645 4.9558493,4.9558493 0 0 0 2.755259,4.11872 4.9558493,4.9558493 0 0 0 4.945132,-0.32605 l -0.0058,-0.008 z m -32.434365,22.90187 a 1.7917303,1.7917303 0 0 1 1.363455,0.64462 1.7917303,1.7917303 0 0 1 -0.226826,2.52093 1.7917303,1.7917303 0 0 1 -2.521766,-0.22182 1.7917303,1.7917303 0 0 1 0.217655,-2.52261 l 1.154971,1.37013 -1.144968,-1.37846 a 1.7917303,1.7917303 0 0 1 1.157479,-0.41279 z"
           style="opacity:1;fill:#fac900;fill-opacity:1;stroke:none;stroke-width:1.1250546;stroke-linecap:round;stroke-miterlimit:4;stroke-dasharray:none;stroke-dashoffset:8.1940155;stroke-opacity:1" />
      </g>
    </g>
  </g>
</svg>
