<?xml version="1.0" encoding="UTF-8" standalone="no"?>
<!-- Created with Inkscape (http://www.inkscape.org/) -->

<svg
   xmlns:dc="http://purl.org/dc/elements/1.1/"
   xmlns:cc="http://creativecommons.org/ns#"
   xmlns:rdf="http://www.w3.org/1999/02/22-rdf-syntax-ns#"
   xmlns:svg="http://www.w3.org/2000/svg"
   xmlns="http://www.w3.org/2000/svg"
   xmlns:xlink="http://www.w3.org/1999/xlink"
   xmlns:sodipodi="http://sodipodi.sourceforge.net/DTD/sodipodi-0.dtd"
   xmlns:inkscape="http://www.inkscape.org/namespaces/inkscape"
   width="70mm"
   height="40mm"
   viewBox="0 0 70 40"
   version="1.1"
   id="svg8"
   inkscape:version="0.92.3 (2405546, 2018-03-11)"
   sodipodi:docname="BNB Station Yellow.svg">
  <defs
     id="defs2">
    <clipPath
       clipPathUnits="userSpaceOnUse"
       id="clipPath4834">
      <path
         d="M 0,256.3 H 913.441 V 0 H 0 Z"
         id="path4832"
         inkscape:connector-curvature="0" />
    </clipPath>
    <style
       type="text/css"
       id="style5060" />
    <clipPath
       clipPathUnits="userSpaceOnUse"
       id="clipPath4834-3">
      <path
         d="M 0,256.3 H 913.441 V 0 H 0 Z"
         id="path4832-8"
         inkscape:connector-curvature="0" />
    </clipPath>
    <clipPath
       id="clipPath3962"
       clipPathUnits="userSpaceOnUse">
      <rect
         transform="scale(1,-1)"
         y="-414.32101"
         x="587.78613"
         height="71.143837"
         width="86.914993"
         id="rect3964"
         style="opacity:0.54900004;fill:none;fill-opacity:1;stroke:#abedff;stroke-width:1.49030864;stroke-miterlimit:4;stroke-dasharray:none;stroke-dashoffset:0;stroke-opacity:1" />
    </clipPath>
    <clipPath
       id="SVGID_6_">
      <use
         id="use1084"
         overflow="visible"
         xlink:href="#SVGID_5_"
         style="overflow:visible"
         x="0"
         y="0"
         width="100%"
         height="100%" />
    </clipPath>
    <clipPath
       id="SVGID_4_">
      <use
         id="use1074"
         overflow="visible"
         xlink:href="#SVGID_3_"
         style="overflow:visible"
         x="0"
         y="0"
         width="100%"
         height="100%" />
    </clipPath>
    <clipPath
       id="SVGID_2_">
      <use
         id="use1064"
         overflow="visible"
         xlink:href="#SVGID_1_"
         style="overflow:visible"
         x="0"
         y="0"
         width="100%"
         height="100%" />
    </clipPath>
    <clipPath
       id="SVGID_8_">
      <use
         id="use1094"
         overflow="visible"
         xlink:href="#SVGID_7_"
         style="overflow:visible"
         x="0"
         y="0"
         width="100%"
         height="100%" />
    </clipPath>
    <clipPath
       id="SVGID_10_">
      <use
         id="use1104"
         overflow="visible"
         xlink:href="#SVGID_9_"
         style="overflow:visible"
         x="0"
         y="0"
         width="100%"
         height="100%" />
    </clipPath>
    <path
       inkscape:connector-curvature="0"
       id="path1912"
       d="m 975,0 h 254.4 V 572.4 H 975 Z" />
    <path
       inkscape:connector-curvature="0"
       id="path1919"
       d="M 720.6,0 H 975 V 572.4 H 720.6 Z" />
    <path
       inkscape:connector-curvature="0"
       id="path1926"
       d="m 720.6,306.4 h 508.7 v 266 H 720.6 Z" />
    <path
       inkscape:connector-curvature="0"
       id="path1933"
       d="M 720.6,470.3 H 975 V 828.7 H 720.6 Z" />
    <path
       inkscape:connector-curvature="0"
       id="path1940"
       d="m 975,470.3 h 254.5 V 828.7 H 975 Z" />
    <linearGradient
       id="linear-gradient"
       x1="10.87"
       y1="147"
       x2="304.87"
       y2="147"
       gradientUnits="userSpaceOnUse">
      <stop
         offset="0"
         stop-color="#3cf"
         id="stop2472" />
      <stop
         offset="1"
         stop-color="#4edcca"
         id="stop2474" />
    </linearGradient>
  </defs>
  <sodipodi:namedview
     id="base"
     pagecolor="#ffffff"
     bordercolor="#666666"
     borderopacity="1.0"
     inkscape:pageopacity="0.0"
     inkscape:pageshadow="2"
     inkscape:zoom="1.4142136"
     inkscape:cx="6.9454739"
     inkscape:cy="82.193932"
     inkscape:document-units="mm"
     inkscape:current-layer="g2102"
     showgrid="false"
     inkscape:window-width="1920"
     inkscape:window-height="1017"
     inkscape:window-x="-8"
     inkscape:window-y="-8"
     inkscape:window-maximized="1"
     inkscape:snap-global="false"
     inkscape:measure-start="92.1429,29.2857"
     inkscape:measure-end="185,22.8571" />
  <metadata
     id="metadata5">
    <rdf:RDF>
      <cc:Work
         rdf:about="">
        <dc:format>image/svg+xml</dc:format>
        <dc:type
           rdf:resource="http://purl.org/dc/dcmitype/StillImage" />
        <dc:title></dc:title>
      </cc:Work>
    </rdf:RDF>
  </metadata>
  <g
     inkscape:label="Layer 1"
     inkscape:groupmode="layer"
     id="layer1"
     transform="translate(0,-257)">
    <path
       style="opacity:1;fill:#f4d7d7;fill-opacity:1;stroke:none;stroke-width:0.66499996;stroke-linecap:round;stroke-miterlimit:4;stroke-dasharray:none;stroke-dashoffset:8.1940155;stroke-opacity:1"
       id="path1323"
       d="m -34.962799,107.82291 a 19.087799,11.717261 0 0 1 -0.0035,0.22285 l -19.084346,-0.22285 z"
       sodipodi:type="arc"
       sodipodi:start="0"
       sodipodi:end="0.019020075"
       sodipodi:ry="11.717261"
       sodipodi:rx="19.087799"
       sodipodi:cy="107.82291"
       sodipodi:cx="-54.050598" />
    <g
       id="g2102"
       transform="matrix(0.92209697,0,0,0.92209697,-26.377496,157.37928)">
      <path
         transform="scale(0.26458333)"
         id="path2063"
         d="m 337.55273,445.28125 5.44922,4.9668 c -1.76712,-1.70195 -3.58306,-3.35851 -5.44922,-4.9668 z"
         style="opacity:1;fill:#fac900;fill-opacity:1;stroke:none;stroke-width:0.81035018;stroke-linecap:round;stroke-miterlimit:4;stroke-dasharray:none;stroke-dashoffset:8.1940155;stroke-opacity:1"
         inkscape:connector-curvature="0" />
      <rect
         style="opacity:1;fill:#000000;fill-opacity:0;stroke:none;stroke-width:0.28738841;stroke-linecap:round;stroke-miterlimit:4;stroke-dasharray:none;stroke-dashoffset:8.1940155;stroke-opacity:1"
         id="rect2118"
         width="54.7229"
         height="7.5833235"
         x="28.605989"
         y="142.19357" />
      <rect
         style="opacity:1;fill:#ff7f2a;fill-opacity:0;stroke:none;stroke-width:1.4369421;stroke-linecap:round;stroke-miterlimit:4;stroke-dasharray:none;stroke-dashoffset:8.1940155;stroke-opacity:1"
         id="rect2120"
         width="94.074203"
         height="5.123867"
         x="31.270399"
         y="141.98859" />
      <path
         style="opacity:1;fill:#fac900;fill-opacity:1;stroke:none;stroke-width:0.3878198;stroke-linecap:round;stroke-miterlimit:4;stroke-dasharray:none;stroke-dashoffset:8.1940155;stroke-opacity:1"
         d="m 67.84017,112.41264 a 36.376133,36.376133 0 0 0 -19.045974,4.86335 36.376133,36.376133 0 0 0 -18.187967,31.50306 h 0.195025 a 26.630291,26.630291 0 0 1 13.31565,-23.06253 26.630291,26.630291 0 0 1 26.63018,0 26.630291,26.630291 0 0 1 2.514058,1.6667 l -0.0029,-0.003 15.094992,-7.98323 a 36.376133,36.376133 0 0 0 -3.183202,-2.1212 36.376133,36.376133 0 0 0 -17.329959,-4.86335 z"
         id="path2283"
         inkscape:connector-curvature="0" />
      <path
         style="opacity:1;fill:#247f2a;fill-opacity:1;stroke:none;stroke-width:0.3878198;stroke-linecap:round;stroke-miterlimit:4;stroke-dasharray:none;stroke-dashoffset:8.1940155;stroke-opacity:1"
         d="m 89.130638,119.95257 0.936467,0.74705 a 36.376133,36.376133 0 0 0 -0.936467,-0.74705 z"
         id="path2281"
         inkscape:connector-curvature="0" />
      <path
         style="opacity:1;fill:#fac900;fill-opacity:1;stroke:none;stroke-width:0.3878198;stroke-linecap:round;stroke-miterlimit:4;stroke-dasharray:none;stroke-dashoffset:8.1940155;stroke-opacity:1"
         d="m 91.247356,121.7364 -12.425137,11.19781 -0.0034,-0.003 a 26.630291,26.630291 0 0 1 4.63862,10.35717 l -0.01905,-0.24098 9.485159,5.73201 9.917812,-5.78973 A 36.376133,36.376133 0 0 0 91.247356,121.7364 Z m 11.914034,23.34778 0.0118,0.102 a 36.376133,36.376133 0 0 0 -0.0118,-0.102 z"
         id="path2136"
         inkscape:connector-curvature="0" />
      <g
         style="fill:#fac900;fill-opacity:1"
         transform="matrix(1.0126415,0.04181785,-0.04181785,1.0126415,151.75225,62.268121)"
         id="g1355">
        <path
           style="opacity:1;fill:#fac900;fill-opacity:1;stroke:none;stroke-width:4.41952419;stroke-linecap:round;stroke-miterlimit:4;stroke-dasharray:none;stroke-dashoffset:8.1940155;stroke-opacity:1"
           d="m -55.123047,41.787109 -139.611333,73.820311 -0.006,0.002 c -5.93678,3.62539 -9.48869,10.14358 -9.31641,17.09765 0.1723,6.95225 4.03991,13.28368 10.14648,16.61133 6.10703,3.32864 13.52671,3.14799 19.46289,-0.47656 l 1.51368,-1.00977 z M -185.27344,127.14453 a 6.809151,6.809151 0 0 1 6.625,6.80664 l -0.0391,0.73242 a 6.809151,6.809151 0 0 1 -7.32031,6.05469 6.809151,6.809151 0 0 1 -6.24805,-7.1543 6.809151,6.809151 0 0 1 6.98242,-6.43945 z"
           transform="matrix(0.25434787,-0.0105035,0.0105035,0.25434787,-44.62276,48.628331)"
           id="path2170"
           inkscape:connector-curvature="0" />
      </g>
    </g>
  </g>
</svg>
