<?xml version="1.0" encoding="UTF-8"?>
<svg width="67px" height="66px" viewBox="0 0 67 66" version="1.1" xmlns="http://www.w3.org/2000/svg" xmlns:xlink="http://www.w3.org/1999/xlink">
    <!-- Generator: Sketch 54.1 (76490) - https://sketchapp.com -->
    <title>bnbstation-icon</title>
    <desc>Created with Sketch.</desc>
    <g id="Page-1" stroke="none" stroke-width="1" fill="none" fill-rule="evenodd">
        <g id="bnbstation-icon">
            <rect id="Rectangle" fill="#FFFFFF" x="0" y="-7.10542736e-15" width="67" height="66"></rect>
            <g id="Group" transform="translate(1.000000, 10.000000)" fill-rule="nonzero">
                <path d="M32.2366382,0.0018964429 C26.6420646,0.0621110449 21.1499053,1.5620575 16.2936724,4.36574367 C6.21111395,10.186979 9.759e-06,20.9449676 0,32.5873381 L0.000975886,32.5873381 C0.014662686,24.462768 4.47665721,16.9602667 11.7111315,12.8975998 C18.9581289,8.82835788 27.8868266,8.82835788 35.133824,12.8975998 C36.5420127,13.6884821 37.8435518,14.6115117 39.0292679,15.642279 L38.951119,15.5474546 L53.1443505,7.30436315 C51.8150133,6.22374269 50.3926693,5.23821499 48.8815221,4.36574367 C44.1531741,1.63589547 38.8147291,0.13779588 33.3564526,0.0090423669 C32.9827274,0.000210599899 32.609634,-0.0021071301 32.2366626,0.0018940029 L32.2366382,0.0018964429 Z" id="path2065" fill="#F0B90B"></path>
                <path d="M53.8609923,7.90571383 L55.1904467,9.11747141 C54.7593198,8.70224414 54.3162822,8.29809074 53.8609923,7.90571383 Z" id="path2063" fill="#FAC900"></path>
                <path d="M55.5997674,9.51487657 L43.6532644,21.149745 C43.6672683,21.1731175 43.6822238,21.1958947 43.6961497,21.2193135 C45.7174998,24.6183389 46.836253,28.5251495 46.8430013,32.5873381 L55.947617,37.962335 L65.1751701,32.5873381 C65.1751701,26.7661565 63.6225111,21.1661058 60.809415,16.2936634 C59.4028657,13.8574373 57.6814004,11.6030602 55.681249,9.59397701 C55.6545683,9.56717674 55.6265457,9.54158901 55.5997674,9.51487657 L55.5997674,9.51487657 Z" id="path826" fill="#F0B90B"></path>
                <g id="g1355" transform="translate(35.891120, 23.576871) rotate(-1.135259) translate(-35.891120, -23.576871) translate(17.891120, 9.076871)" fill="#2B3947">
                    <path d="M35.3115966,0.780332614 L2.86875293,19.7079892 L2.85865341,19.6929473 C1.48346847,20.6127127 0.703532886,22.1963445 0.812713283,23.8471568 C0.921880001,25.4975363 1.90311874,26.9643485 3.3868844,27.6951762 C4.87076769,28.4262344 6.63194798,28.3101136 8.00700032,27.3905557 L8.00158153,27.3830815 L35.3115966,0.780332614 Z M5.0089624,22.1769898 C5.5015018,22.180555 5.96747374,22.4008592 6.28280507,22.7792425 C6.87362389,23.4884706 6.77881995,24.5421156 6.07088709,25.1344858 C5.36277866,25.7269585 4.30866748,25.6342366 3.71486277,24.9272448 C3.12091736,24.2200485 3.21191068,23.1654407 3.91821251,22.5704319 L4.99727368,23.8505109 L3.92755807,22.5626494 C4.23129166,22.3106346 4.61430194,22.1740422 5.0089624,22.1769898 L5.0089624,22.1769898 Z" id="path1307"></path>
                </g>
            </g>
        </g>
    </g>
</svg>