<?xml version="1.0" encoding="UTF-8"?>
<svg width="1861px" height="232px" viewBox="0 0 1861 232" version="1.1" xmlns="http://www.w3.org/2000/svg" xmlns:xlink="http://www.w3.org/1999/xlink">
    <!-- Generator: Sketch 54.1 (76490) - https://sketchapp.com -->
    <title>Artboard</title>
    <desc>Created with Sketch.</desc>
    <defs>
        <path d="M484.554688,57.3535156 L520.545898,57.3535156 C536.946371,57.3535156 548.851037,59.6869884 556.260254,64.3540039 C563.669471,69.0210194 567.374023,76.4433085 567.374023,86.6210938 C567.374023,93.5293314 565.752458,99.19822 562.509277,103.62793 C559.266097,108.057639 554.955105,110.720699 549.576172,111.617188 L549.576172,112.408203 C556.906287,114.042977 562.192855,117.10154 565.436035,121.583984 C568.679215,126.066429 570.300781,132.025353 570.300781,139.460938 C570.300781,150.007865 566.490761,158.234345 558.870605,164.140625 C551.25045,170.046905 540.901433,173 527.823242,173 L484.554688,173 L484.554688,57.3535156 Z M509.076172,103.15332 L523.314453,103.15332 C529.959018,103.15332 534.770981,102.12501 537.750488,100.068359 C540.729995,98.0117085 542.219727,94.6103753 542.219727,89.8642578 C542.219727,85.4345482 540.598161,82.2573338 537.35498,80.3325195 C534.1118,78.4077052 528.983434,77.4453125 521.969727,77.4453125 L509.076172,77.4453125 L509.076172,103.15332 Z M509.076172,122.612305 L509.076172,152.75 L525.054688,152.75 C531.804721,152.75 536.78807,151.458021 540.004883,148.874023 C543.221696,146.290026 544.830078,142.334988 544.830078,137.008789 C544.830078,127.411085 537.974678,122.612305 524.263672,122.612305 L509.076172,122.612305 Z M695.993164,173 L664.827148,173 L614.518555,85.5136719 L613.806641,85.5136719 C614.808599,100.964921 615.30957,111.986295 615.30957,118.578125 L615.30957,173 L593.398438,173 L593.398438,57.3535156 L624.327148,57.3535156 L674.556641,143.969727 L675.110352,143.969727 C674.319332,128.940355 673.923828,118.314484 673.923828,112.091797 L673.923828,57.3535156 L695.993164,57.3535156 L695.993164,173 Z M725.102539,57.3535156 L761.09375,57.3535156 C777.494223,57.3535156 789.398889,59.6869884 796.808105,64.3540039 C804.217322,69.0210194 807.921875,76.4433085 807.921875,86.6210938 C807.921875,93.5293314 806.300309,99.19822 803.057129,103.62793 C799.813949,108.057639 795.502957,110.720699 790.124023,111.617188 L790.124023,112.408203 C797.454138,114.042977 802.740706,117.10154 805.983887,121.583984 C809.227067,126.066429 810.848633,132.025353 810.848633,139.460938 C810.848633,150.007865 807.038612,158.234345 799.418457,164.140625 C791.798302,170.046905 781.449284,173 768.371094,173 L725.102539,173 L725.102539,57.3535156 Z M749.624023,103.15332 L763.862305,103.15332 C770.506869,103.15332 775.318833,102.12501 778.29834,100.068359 C781.277847,98.0117085 782.767578,94.6103753 782.767578,89.8642578 C782.767578,85.4345482 781.146012,82.2573338 777.902832,80.3325195 C774.659652,78.4077052 769.531285,77.4453125 762.517578,77.4453125 L749.624023,77.4453125 L749.624023,103.15332 Z M749.624023,122.612305 L749.624023,152.75 L765.602539,152.75 C772.352573,152.75 777.335921,151.458021 780.552734,148.874023 C783.769547,146.290026 785.37793,142.334988 785.37793,137.008789 C785.37793,127.411085 778.522529,122.612305 764.811523,122.612305 L749.624023,122.612305 Z M902.210938,140.884766 C902.210938,151.326224 898.453651,159.552704 890.938965,165.564453 C883.424279,171.576202 872.969794,174.582031 859.575195,174.582031 C847.23529,174.582031 836.319383,172.261742 826.827148,167.621094 L826.827148,144.839844 C834.631875,148.32033 841.236789,150.772454 846.64209,152.196289 C852.04739,153.620124 856.991189,154.332031 861.473633,154.332031 C866.852566,154.332031 870.97899,153.303721 873.853027,151.24707 C876.727065,149.190419 878.164062,146.131856 878.164062,142.071289 C878.164062,139.8037 877.531256,137.78663 876.265625,136.02002 C874.999994,134.253409 873.141126,132.552743 870.688965,130.917969 C868.236804,129.283195 863.240272,126.672869 855.699219,123.086914 C848.632777,119.764632 843.333025,116.574234 839.799805,113.515625 C836.266584,110.457016 833.445323,106.897481 831.335938,102.836914 C829.226552,98.7763469 828.171875,94.0303006 828.171875,88.5986328 C828.171875,78.3681129 831.639125,70.3262011 838.57373,64.4726562 C845.508335,58.6191114 855.092712,55.6923828 867.327148,55.6923828 C873.338897,55.6923828 879.073703,56.4042898 884.531738,57.828125 C889.989773,59.2519602 895.698212,61.2558465 901.657227,63.8398438 L893.74707,82.9033203 C887.577118,80.3720577 882.475118,78.6054738 878.440918,77.6035156 C874.406718,76.6015575 870.438496,76.1005859 866.536133,76.1005859 C861.895485,76.1005859 858.33595,77.1816298 855.857422,79.34375 C853.378894,81.5058702 852.139648,84.327131 852.139648,87.8076172 C852.139648,89.9697374 852.64062,91.8549724 853.642578,93.4633789 C854.644536,95.0717854 856.239735,96.6274339 858.428223,98.1303711 C860.61671,99.6333083 865.797811,102.335918 873.97168,106.238281 C884.782281,111.406276 892.191386,116.587376 896.199219,121.781738 C900.207051,126.9761 902.210938,133.343712 902.210938,140.884766 Z M967.786133,173 L943.264648,173 L943.264648,77.7617188 L911.861328,77.7617188 L911.861328,57.3535156 L999.189453,57.3535156 L999.189453,77.7617188 L967.786133,77.7617188 L967.786133,173 Z M1076.47168,173 L1068.08691,145.472656 L1025.92578,145.472656 L1017.54102,173 L991.121094,173 L1031.9375,56.8789062 L1061.91699,56.8789062 L1102.8916,173 L1076.47168,173 Z M1062.2334,124.90625 C1054.48141,99.9627659 1050.11768,85.8564617 1049.14209,82.5869141 C1048.1665,79.3173665 1047.46778,76.7334079 1047.0459,74.8349609 C1045.30566,81.5849947 1040.32231,98.2752575 1032.0957,124.90625 L1062.2334,124.90625 Z M1150.74805,173 L1126.22656,173 L1126.22656,77.7617188 L1094.82324,77.7617188 L1094.82324,57.3535156 L1182.15137,57.3535156 L1182.15137,77.7617188 L1150.74805,77.7617188 L1150.74805,173 Z M1199.94922,173 L1199.94922,57.3535156 L1224.4707,57.3535156 L1224.4707,173 L1199.94922,173 Z M1358.54785,115.018555 C1358.54785,134.161229 1353.80181,148.873972 1344.30957,159.157227 C1334.81734,169.440481 1321.212,174.582031 1303.49316,174.582031 C1285.77433,174.582031 1272.16899,169.440481 1262.67676,159.157227 C1253.18452,148.873972 1248.43848,134.108495 1248.43848,114.860352 C1248.43848,95.6122084 1253.19771,80.9126484 1262.71631,70.7612305 C1272.23491,60.6098125 1285.87979,55.5341797 1303.65137,55.5341797 C1321.42294,55.5341797 1335.01509,60.6493629 1344.42822,70.8798828 C1353.84136,81.1104027 1358.54785,95.8231462 1358.54785,115.018555 Z M1274.14648,115.018555 C1274.14648,127.938541 1276.59861,137.667936 1281.50293,144.207031 C1286.40725,150.746126 1293.73726,154.015625 1303.49316,154.015625 C1323.05772,154.015625 1332.83984,141.016732 1332.83984,115.018555 C1332.83984,88.9676432 1323.11045,75.9423828 1303.65137,75.9423828 C1293.89546,75.9423828 1286.53909,79.2250648 1281.58203,85.7905273 C1276.62498,92.3559899 1274.14648,102.098568 1274.14648,115.018555 Z M1485.11035,173 L1453.94434,173 L1403.63574,85.5136719 L1402.92383,85.5136719 C1403.92579,100.964921 1404.42676,111.986295 1404.42676,118.578125 L1404.42676,173 L1382.51562,173 L1382.51562,57.3535156 L1413.44434,57.3535156 L1463.67383,143.969727 L1464.22754,143.969727 C1463.43652,128.940355 1463.04102,118.314484 1463.04102,112.091797 L1463.04102,57.3535156 L1485.11035,57.3535156 L1485.11035,173 Z" id="path-1"></path>
        <path d="M1512,160.640625 C1512,156.210915 1513.18651,152.862316 1515.55957,150.594727 C1517.93263,148.327137 1521.3867,147.193359 1525.92188,147.193359 C1530.29885,147.193359 1533.687,148.353504 1536.08643,150.673828 C1538.48585,152.994152 1539.68555,156.316385 1539.68555,160.640625 C1539.68555,164.806661 1538.47267,168.089343 1536.04688,170.48877 C1533.62108,172.888196 1530.24612,174.087891 1525.92188,174.087891 C1521.49217,174.087891 1518.06447,172.914563 1515.63867,170.567871 C1513.21288,168.22118 1512,164.912131 1512,160.640625 Z M1560.56836,60.65625 C1560.56836,52.7987888 1564.94527,48.8701172 1573.69922,48.8701172 C1582.45317,48.8701172 1586.83008,52.7987888 1586.83008,60.65625 C1586.83008,64.4004093 1585.73585,67.3139544 1583.54736,69.3969727 C1581.35888,71.4799909 1578.07619,72.5214844 1573.69922,72.5214844 C1564.94527,72.5214844 1560.56836,68.5664458 1560.56836,60.65625 Z M1585.72266,171.952148 L1561.59668,171.952148 L1561.59668,83.5166016 L1585.72266,83.5166016 L1585.72266,171.952148 Z M1692.66797,171.952148 L1668.54199,171.952148 L1668.54199,120.298828 C1668.54199,113.917937 1667.40821,109.13234 1665.14062,105.941895 C1662.87304,102.751449 1659.26077,101.15625 1654.30371,101.15625 C1647.55368,101.15625 1642.6758,103.410622 1639.66992,107.919434 C1636.66405,112.428245 1635.16113,119.903268 1635.16113,130.344727 L1635.16113,171.952148 L1611.03516,171.952148 L1611.03516,83.5166016 L1629.46582,83.5166016 L1632.70898,94.828125 L1634.05371,94.828125 C1636.74318,90.5566193 1640.44773,87.3266711 1645.16748,85.1381836 C1649.88723,82.9496961 1655.2529,81.8554688 1661.26465,81.8554688 C1671.5479,81.8554688 1679.35251,84.6371792 1684.67871,90.2006836 C1690.00491,95.764188 1692.66797,103.792916 1692.66797,114.287109 L1692.66797,171.952148 Z M1766.39062,101.630859 L1745.50781,101.630859 L1745.50781,171.952148 L1721.38184,171.952148 L1721.38184,101.630859 L1708.09277,101.630859 L1708.09277,90.0029297 L1721.38184,83.5166016 L1721.38184,77.0302734 C1721.38184,66.9579575 1723.86033,59.6015857 1728.81738,54.9609375 C1733.77444,50.3202893 1741.71088,48 1752.62695,48 C1760.95903,48 1768.36813,49.2392454 1774.85449,51.7177734 L1768.68457,69.4365234 C1763.83298,67.9072189 1759.35061,67.1425781 1755.2373,67.1425781 C1751.80955,67.1425781 1749.33106,68.1577047 1747.80176,70.1879883 C1746.27245,72.2182719 1745.50781,74.8154139 1745.50781,77.9794922 L1745.50781,83.5166016 L1766.39062,83.5166016 L1766.39062,101.630859 Z M1799.45508,127.576172 C1799.45508,136.330122 1800.89208,142.94822 1803.76611,147.430664 C1806.64015,151.913108 1811.32028,154.154297 1817.80664,154.154297 C1824.24027,154.154297 1828.86766,151.926292 1831.68896,147.470215 C1834.51027,143.014138 1835.9209,136.382857 1835.9209,127.576172 C1835.9209,118.822222 1834.49708,112.256858 1831.64941,107.879883 C1828.80174,103.502908 1824.1348,101.314453 1817.64844,101.314453 C1811.21481,101.314453 1806.57423,103.489724 1803.72656,107.840332 C1800.87889,112.19094 1799.45508,118.769487 1799.45508,127.576172 Z M1860.60059,127.576172 C1860.60059,141.972728 1856.80375,153.231405 1849.20996,161.352539 C1841.61617,169.473673 1831.04304,173.53418 1817.49023,173.53418 C1808.99996,173.53418 1801.51175,171.675312 1795.02539,167.95752 C1788.53903,164.239728 1783.55568,158.900425 1780.0752,151.939453 C1776.59471,144.978481 1774.85449,136.857468 1774.85449,127.576172 C1774.85449,113.126881 1778.62496,101.894571 1786.16602,93.8789062 C1793.70707,85.8632412 1804.30657,81.8554688 1817.96484,81.8554688 C1826.45512,81.8554688 1833.94333,83.7011534 1840.42969,87.3925781 C1846.91605,91.0840028 1851.8994,96.3837545 1855.37988,103.291992 C1858.86037,110.20023 1860.60059,118.294875 1860.60059,127.576172 Z" id="path-2"></path>
    </defs>
    <g id="Artboard" stroke="none" stroke-width="1" fill="none" fill-rule="evenodd">
        <g id="bnbstation" fill-rule="nonzero">
            <g id="BNB-Station-Yellow-Black">
                <g id="g2102">
                    <path d="M193.143191,0.366788593 C159.731297,0.734081418 126.931042,9.88335002 97.928664,26.985079 C37.7136424,62.4930433 0.619706728,128.11387 0.619648446,199.129189 L0.625476629,199.129189 C0.707216892,149.571504 27.3551257,103.80827 70.560829,79.0270987 C113.841322,54.2058213 167.165261,54.2058213 210.445754,79.0270987 C218.855735,83.8512677 226.628782,89.4814987 233.710112,95.7689013 L233.243391,95.190498 L318.008161,44.9098648 C310.069098,38.3183715 301.574579,32.3069185 292.549711,26.985079 C264.311087,10.3337417 232.428844,1.19573848 199.830943,0.410376806 C197.598982,0.356505406 195.370795,0.342367883 193.143337,0.366773711 L193.143191,0.366788593 Z" id="path2065" fill="#F0B90B"></path>
                    <path d="M322.288087,48.5779416 L330.227849,55.9693358 C327.653075,53.4365615 325.007167,50.9713348 322.288087,48.5779416 Z" id="path2063" fill="#FAC900"></path>
                    <path d="M332.672393,58.3934 L261.325528,129.362958 C261.409162,129.505523 261.498479,129.644458 261.581647,129.787307 C273.653548,150.520444 280.334962,174.350934 280.375264,199.129189 L334.74982,231.915219 L389.858581,199.129189 C389.858581,163.621552 380.585797,129.462754 363.785433,99.74217 C355.385244,84.8818484 345.104315,71.1307569 333.159017,58.8758913 C332.999675,58.7124169 332.832319,58.5563387 332.672393,58.3934 L332.672393,58.3934 Z" id="path826" fill="#F0B90B"></path>
                    <g id="g1355" transform="translate(215.294932, 143.707997) rotate(-1.135259) translate(-215.294932, -143.707997) translate(111.794932, 59.707997)" fill="#2B3947">
                        <path d="M206.553482,0.772695186 L12.798439,116.226292 L12.7381227,116.134541 C4.52524777,121.744861 -0.132680923,131.404588 0.519365881,141.474098 C1.17133099,151.540967 7.03148171,160.488126 15.892822,164.945977 C24.7548649,169.405235 35.2729799,168.696929 43.4850629,163.087874 L43.4527008,163.042284 L206.553482,0.772695186 Z M25.5801909,131.28653 C28.521733,131.308276 31.3046091,132.652072 33.1878298,134.960109 C36.716316,139.286208 36.1501282,145.713159 31.9222139,149.326457 C27.6932511,152.94038 21.3978919,152.374802 17.8515733,148.062343 C14.3044145,143.748636 14.8478446,137.315813 19.066018,133.68642 L25.5103835,141.494556 L19.1218315,133.638949 C20.9357883,132.101727 23.2232009,131.26855 25.5801909,131.28653 L25.5801909,131.28653 Z" id="path1307"></path>
                    </g>
                </g>
            </g>
            <g id="BNBSTATION">
                <use fill="#000000" xlink:href="#path-1"></use>
                <use fill="#F0B90B" xlink:href="#path-1"></use>
            </g>
            <g id=".info">
                <use fill="#000000" xlink:href="#path-2"></use>
                <use fill="#2B3947" xlink:href="#path-2"></use>
            </g>
        </g>
    </g>
</svg>